<svg width="384" height="512" viewBox="0 0 384 512" fill="#51557E" xmlns="http://www.w3.org/2000/svg">
    <g clip-path="url(#clip0_149_2)">
        <path d="M169.4 470.6C181.9 483.1 202.2 483.1 214.7 470.6L374.7 310.6C387.2 298.1 387.2 277.8 374.7 265.3C362.2 252.8 341.9 252.8 329.4 265.3L224 370.8V64C224 46.3 209.7 32 192 32C174.3 32 160 46.3 160 64V370.7L54.6 265.4C42.1 252.9 21.8 252.9 9.30005 265.4C-3.19995 277.9 -3.19995 298.2 9.30005 310.7L169.3 470.7L169.4 470.6Z"/>
    </g>
    <defs>
        <clipPath id="clip0_149_2">
            <rect width="384" height="512" fill="white"/>
        </clipPath>
    </defs>
</svg>
