<svg width="168" height="173" viewBox="0 0 168 173" fill="none" xmlns="http://www.w3.org/2000/svg">
    <g filter="url(#filter0_d_150_3)">
        <path d="M76.3912 122.84C76.2632 123.657 76.5603 124.489 77.1803 125.038L83.3053 130.46L80.9023 139.477C80.5593 140.77 81.3253 142.088 82.6193 142.438C83.9093 142.785 85.2333 142.011 85.5803 140.721L88.3723 130.264C88.6032 129.383 88.3261 128.439 87.6375 127.83L81.3813 122.292L82.2153 117.115C80.4663 117.513 78.7883 117.766 77.1803 117.895L76.3912 122.84Z" fill="#51557E"/>
        <path d="M89.6398 119.608C89.7334 120.919 90.8606 121.917 92.1733 121.851L110.384 120.937L129.61 132.234C130.765 132.907 132.244 132.529 132.921 131.37C133.514 130.357 133.289 129.084 132.441 128.334C132.329 128.234 132.2 128.146 132.058 128.059L112.21 116.399C111.804 116.156 111.338 116.04 110.866 116.069L94.2991 116.893L93.9709 112.407C92.3738 113.321 90.8129 114.098 89.2896 114.76L89.6398 119.608Z" fill="#51557E"/>
        <path d="M108.912 106.336C109.302 106.999 109.987 107.437 110.763 107.509C111.532 107.583 112.292 107.279 112.802 106.703L135.901 80.6061L162.059 65.4721C163.218 64.8041 163.615 63.3191 162.941 62.1671C162.807 61.9391 162.64 61.7331 162.452 61.5661C161.691 60.8921 160.564 60.7481 159.633 61.2821L133.134 76.6121C132.913 76.7461 132.71 76.9091 132.537 77.1051L111.372 101.016L110.294 99.1952C109.102 100.448 107.933 101.637 106.769 102.733L108.912 106.336Z" fill="#51557E"/>
        <path d="M43.1472 88.4481L36.8942 82.9139C36.2092 82.3075 35.2392 82.1403 34.3892 82.4802L24.3482 86.5209C23.1062 87.0184 22.5062 88.4334 23.0072 89.6716C23.5072 90.9099 24.9162 91.5099 26.1572 91.0125L34.8092 87.5261L40.9382 92.9513C41.5582 93.4999 42.4172 93.691 43.2152 93.4606L48.0352 92.0766C47.9642 90.4761 48.0122 88.7724 48.2012 86.988L43.1472 88.4481Z" fill="#51557E"/>
        <path d="M27.4212 41.787L40.9652 59.496L42.2722 77.686C42.3652 78.998 43.4922 79.995 44.8052 79.929L49.6602 79.688C50.1282 78.093 50.7172 76.448 51.4302 74.752L46.9352 74.975L45.7412 58.43C45.7062 57.959 45.5382 57.506 45.2482 57.133L31.2642 38.848C31.1682 38.723 31.0612 38.603 30.9452 38.5C30.0972 37.749 28.8102 37.684 27.8732 38.392C26.8152 39.208 26.6162 40.725 27.4212 41.787Z" fill="#51557E"/>
        <path d="M60.6292 56.1001L81.7942 32.1891C81.9672 31.9941 82.1012 31.7761 82.2062 31.5331L94.207 3.37009C94.6306 2.38709 94.3437 1.2801 93.5862 0.6101C93.3941 0.4401 93.1768 0.30509 92.9301 0.19709C91.7046 -0.33191 90.2856 0.241098 89.7572 1.4741L77.9092 29.2751L54.8102 55.3711C54.3002 55.9471 54.0912 56.7391 54.2602 57.4901C54.4232 58.2551 54.9452 58.8781 55.6492 59.1851L59.4832 60.8711C60.4332 59.5861 61.4682 58.2711 62.5632 56.9391L60.6292 56.1001Z" fill="#51557E"/>
        <path d="M52.8241 89.2513C59.7371 86.8825 67.6471 91.3693 71.5791 94.8503C75.5121 98.3312 80.9261 105.645 79.4201 112.787C87.4829 111.39 97.613 106.336 109.179 93.2695C132.618 66.7892 142.98 34.6342 132.831 25.6512C122.679 16.6652 92.0169 30.8572 68.5811 57.3342C57.0151 70.4072 53.2321 81.0791 52.8241 89.2513Z" fill="#51557E"/>
        <path d="M10.0592 110.623C19.7872 119.234 38.6242 117.336 49.0952 113.152C49.9772 114.281 51.0032 115.422 52.3332 116.6C53.6632 117.777 54.9212 118.657 56.1522 119.392C53.2642 130.294 53.6662 149.222 63.3902 157.829C68.0262 161.933 76.6722 165.281 91.5173 157.916C105.131 151.168 121.999 136.479 141.659 114.268C142.544 113.268 142.451 111.738 141.451 110.852C140.45 109.967 138.92 110.06 138.034 111.06C92.0986 162.956 73.5572 160.365 66.5982 154.205C58.5922 147.118 58.1762 130.447 60.4872 121.212C64.8662 122.101 68.7502 119.955 72.8252 115.352C79.2442 108.099 68.3712 98.4743 68.3712 98.4743C68.3712 98.4743 57.4972 88.8495 51.0782 96.1022C47.0032 100.705 45.3482 104.825 46.7512 109.067C37.8722 112.474 21.2782 114.089 13.2682 106.999C8.14319 102.462 7.4212 94.8355 11.1252 84.3193C15.9632 70.5861 28.1752 52.5971 47.4222 30.8541C48.3072 29.8541 48.2142 28.3231 47.2142 27.4381C46.2132 26.5521 44.6832 26.6451 43.7972 27.6461C-2.49081 79.9401 -0.0958109 101.634 10.0592 110.623Z" fill="#51557E"/>
    </g>
    <defs>
        <filter id="filter0_d_150_3" x="0" y="0" width="167.269" height="172.266" filterUnits="userSpaceOnUse" color-interpolation-filters="sRGB">
            <feFlood flood-opacity="0" result="BackgroundImageFix"/>
            <feColorMatrix in="SourceAlpha" type="matrix" values="0 0 0 0 0 0 0 0 0 0 0 0 0 0 0 0 0 0 127 0" result="hardAlpha"/>
            <feOffset dy="6"/>
            <feGaussianBlur stdDeviation="2"/>
            <feColorMatrix type="matrix" values="0 0 0 0 0 0 0 0 0 0 0 0 0 0 0 0 0 0 0.25 0"/>
            <feBlend mode="normal" in2="BackgroundImageFix" result="effect1_dropShadow_150_3"/>
            <feBlend mode="normal" in="SourceGraphic" in2="effect1_dropShadow_150_3" result="shape"/>
        </filter>
    </defs>
</svg>
