<svg width="202" height="202" viewBox="0 0 202 202" fill="#51557E" xmlns="http://www.w3.org/2000/svg">
    <g filter="url(#filter0_d_104_142)">
        <path d="M108.994 57.9053C109.122 57.0882 108.825 56.256 108.205 55.7073L102.08 50.2854L104.483 41.2681C104.826 39.975 104.06 38.6569 102.766 38.3071C101.476 37.9605 100.152 38.7338 99.805 40.0237L97.013 50.4809C96.7821 51.3625 97.0591 52.3058 97.7477 52.9154L104.004 58.4528L103.17 63.63C104.919 63.232 106.597 62.9788 108.205 62.8501L108.994 57.9053Z" />
        <path d="M95.7454 61.1369C95.6518 59.8259 94.5246 58.8281 93.2119 58.8944L75.001 59.8083L55.7754 48.5115C54.6199 47.8378 53.141 48.216 52.4641 49.3751C51.8709 50.3885 52.0958 51.6607 52.944 52.4114C53.0563 52.5108 53.1851 52.599 53.3276 52.6864L73.1755 64.3464C73.5812 64.5892 74.0477 64.7048 74.5192 64.6761L91.0861 63.852L91.4143 68.3377C93.0114 67.4243 94.5723 66.6469 96.0956 65.9848L95.7454 61.1369Z" />
        <path d="M76.4734 74.4087C76.0833 73.7466 75.3982 73.3083 74.6223 73.2356C73.8531 73.1624 73.0932 73.4659 72.5831 74.0422L49.4838 100.139L23.3266 115.273C22.1671 115.941 21.7706 117.426 22.4443 118.578C22.5782 118.806 22.7451 119.012 22.9336 119.179C23.6947 119.853 24.8213 119.997 25.7524 119.463L52.2509 104.133C52.4725 103.999 52.6751 103.836 52.8484 103.64L74.0132 79.7296L75.091 81.5499C76.2835 80.2976 77.4524 79.1086 78.6166 78.0124L76.4734 74.4087Z" />
        <path d="M142.238 92.2969L148.491 97.8311C149.176 98.4375 150.146 98.6047 150.996 98.2648L161.037 94.2241C162.279 93.7266 162.879 92.3116 162.378 91.0734C161.878 89.8351 160.469 89.2351 159.228 89.7325L150.576 93.2189L144.447 87.7937C143.827 87.2451 142.968 87.054 142.17 87.2844L137.35 88.6684C137.421 90.2689 137.373 91.9726 137.184 93.757L142.238 92.2969Z" />
        <path d="M157.964 138.958L144.42 121.249L143.113 103.059C143.02 101.747 141.893 100.75 140.58 100.816L135.725 101.057C135.257 102.652 134.668 104.297 133.955 105.993L138.45 105.77L139.644 122.315C139.679 122.786 139.847 123.239 140.137 123.612L154.121 141.897C154.217 142.022 154.324 142.142 154.44 142.245C155.288 142.996 156.575 143.061 157.512 142.353C158.57 141.537 158.769 140.02 157.964 138.958Z" />
        <path d="M124.756 124.645L103.591 148.556C103.418 148.751 103.284 148.969 103.179 149.212L91.1782 177.375C90.7546 178.358 91.0415 179.465 91.799 180.135C91.9911 180.305 92.2084 180.44 92.4551 180.548C93.6806 181.077 95.0996 180.504 95.628 179.271L107.476 151.47L130.575 125.374C131.085 124.798 131.294 124.006 131.125 123.255C130.962 122.49 130.44 121.867 129.736 121.56L125.902 119.874C124.952 121.159 123.917 122.474 122.822 123.806L124.756 124.645Z" />
        <path d="M132.561 91.4939C125.648 93.8627 117.738 89.3759 113.806 85.8949C109.873 82.414 104.459 75.1005 105.965 67.9586C97.9022 69.3551 87.7721 74.4094 76.2064 87.4757C52.767 113.956 42.4053 146.111 52.5539 155.094C62.7061 164.08 93.3682 149.888 116.804 123.411C128.37 110.338 132.153 99.6661 132.561 91.4939Z" />
        <path d="M175.326 70.1218C165.598 61.5109 146.761 63.4094 136.29 67.593C135.408 66.4636 134.382 65.3226 133.052 64.1451C131.722 62.9677 130.464 62.0876 129.233 61.3533C132.121 50.4513 131.719 31.5235 121.995 22.9158C117.359 18.8124 108.713 15.4643 93.8679 22.829C80.2542 29.5769 63.3866 44.2658 43.7265 66.4767C42.841 67.4771 42.9342 69.0076 43.9346 69.8931C44.935 70.7786 46.4655 70.6853 47.351 69.685C93.2866 17.7894 111.828 20.3804 118.787 26.5403C126.793 33.6273 127.209 50.298 124.898 59.5326C120.519 58.6437 116.635 60.7904 112.56 65.3935C106.141 72.6461 117.014 82.2708 117.014 82.2708C117.014 82.2708 127.888 91.8956 134.307 84.6429C138.382 80.0398 140.037 75.9201 138.634 71.6782C147.513 68.2706 164.107 66.6561 172.117 73.7463C177.242 78.2828 177.964 85.9096 174.26 96.4258C169.422 110.159 157.21 128.148 137.963 149.891C137.078 150.891 137.171 152.422 138.171 153.307C139.172 154.193 140.702 154.1 141.588 153.099C187.876 100.805 185.481 79.1113 175.326 70.1218Z" />
    </g>
    <defs>
        <filter id="filter0_d_104_142" x="18.1159" y="18.4792" width="167.27" height="172.266" filterUnits="userSpaceOnUse" color-interpolation-filters="sRGB">
            <feFlood flood-opacity="0" result="BackgroundImageFix"/>
            <feColorMatrix in="SourceAlpha" type="matrix" values="0 0 0 0 0 0 0 0 0 0 0 0 0 0 0 0 0 0 127 0" result="hardAlpha"/>
            <feOffset dy="6"/>
            <feGaussianBlur stdDeviation="2"/>
            <feComposite in2="hardAlpha" operator="out"/>
            <feColorMatrix type="matrix" values="0 0 0 0 0 0 0 0 0 0 0 0 0 0 0 0 0 0 0.25 0"/>
            <feBlend mode="normal" in2="BackgroundImageFix" result="effect1_dropShadow_104_142"/>
            <feBlend mode="normal" in="SourceGraphic" in2="effect1_dropShadow_104_142" result="shape"/>
        </filter>
    </defs>
</svg>
