<svg width="377" height="339" viewBox="0 0 377 339" fill="#51557E" xmlns="http://www.w3.org/2000/svg">
    <g filter="url(#filter0_d_105_532)">
        <path fill-rule="evenodd" clip-rule="evenodd" d="M363.963 169.08L288.623 158.161C279.982 156.909 274.201 166.548 279.412 173.507L300.14 201.186L194.026 280.65C178.603 292.2 156.5 292.581 142.569 279.12C124.855 262.217 127.194 234.158 145.856 220.183L251.198 141.296C283.434 117.157 294.404 72.0146 273.403 37.5407C249.39 -1.91872 197.272 -11.4017 161.181 15.6253L53.2169 96.4753L32.4889 68.7958C27.2779 61.8373 16.4016 64.6723 15.3259 73.2011L4.60227 148.569C3.83355 153.971 7.42331 158.765 12.824 159.548L88.1634 170.466C96.5345 171.679 102.316 162.04 97.1046 155.082L76.3766 127.402L182.49 47.9381C197.914 36.3881 220.016 36.0071 233.948 49.4679C251.662 66.3716 249.323 94.4303 230.661 108.406L125.318 187.292C93.0831 211.432 82.1126 256.574 103.114 291.048C127.127 330.507 179.244 339.99 215.335 312.963L323.3 232.113L344.028 259.792C349.239 266.751 360.115 263.916 361.191 255.387L371.914 180.02C372.799 174.772 369.093 169.823 363.963 169.08Z" />
    </g>
    <defs>
        <filter id="filter0_d_105_532" x="0.498764" y="0.271057" width="375.546" height="338.046" filterUnits="userSpaceOnUse" color-interpolation-filters="sRGB">
            <feFlood flood-opacity="0" result="BackgroundImageFix"/>
            <feColorMatrix in="SourceAlpha" type="matrix" values="0 0 0 0 0 0 0 0 0 0 0 0 0 0 0 0 0 0 127 0" result="hardAlpha"/>
            <feOffset dy="6"/>
            <feGaussianBlur stdDeviation="2"/>
            <feComposite in2="hardAlpha" operator="out"/>
            <feColorMatrix type="matrix" values="0 0 0 0 0 0 0 0 0 0 0 0 0 0 0 0 0 0 0.25 0"/>
            <feBlend mode="normal" in2="BackgroundImageFix" result="effect1_dropShadow_105_532"/>
            <feBlend mode="normal" in="SourceGraphic" in2="effect1_dropShadow_105_532" result="shape"/>
        </filter>
    </defs>
</svg>
