<svg width="49" height="48" viewBox="0 0 49 48" fill="none" xmlns="http://www.w3.org/2000/svg">
    <path d="M16.3894 38.6495C16.3894 38.848 16.1622 39.0068 15.8757 39.0068C15.5497 39.0366 15.3225 38.8778 15.3225 38.6495C15.3225 38.451 15.5497 38.2922 15.8362 38.2922C16.1325 38.2624 16.3894 38.4212 16.3894 38.6495ZM13.317 38.2029C13.2479 38.4014 13.4454 38.6297 13.7418 38.6892C13.9987 38.7885 14.295 38.6892 14.3543 38.4907C14.4136 38.2922 14.2259 38.0639 13.9295 37.9746C13.6727 37.9051 13.3862 38.0044 13.317 38.2029ZM17.6836 38.0342C17.3971 38.1036 17.1995 38.2922 17.2291 38.5205C17.2588 38.719 17.5156 38.848 17.812 38.7786C18.0985 38.7091 18.2961 38.5205 18.2664 38.322C18.2368 38.1334 17.97 38.0044 17.6836 38.0342ZM24.184 0C10.4817 0 8.39233e-05 10.4515 8.39233e-05 24.218C8.39233e-05 35.2253 6.89565 44.6445 16.745 47.9596C18.0096 48.1878 18.4541 47.4037 18.4541 46.7586C18.4541 46.1432 18.4245 42.7487 18.4245 40.6644C18.4245 40.6644 11.5092 42.1532 10.0569 37.7066C10.0569 37.7066 8.93073 34.8183 7.31057 34.0739C7.31057 34.0739 5.04827 32.5156 7.46863 32.5454C7.46863 32.5454 9.92851 32.7439 11.2819 35.1062C13.4454 38.9374 17.0711 37.8356 18.4838 37.1806C18.711 35.5925 19.3531 34.4908 20.0644 33.8357C14.542 33.2203 8.97025 32.4164 8.97025 22.8681C8.97025 20.1386 9.72105 18.7689 11.3017 17.0221C11.0448 16.3769 10.2051 13.7169 11.5586 10.2827C13.6233 9.63757 18.3751 12.9626 18.3751 12.9626C20.3509 12.4068 22.4749 12.1189 24.5791 12.1189C26.6834 12.1189 28.8073 12.4068 30.7831 12.9626C30.7831 12.9626 35.535 9.62764 37.5997 10.2827C38.9531 13.7268 38.1134 16.3769 37.8565 17.0221C39.4372 18.7789 40.4053 20.1486 40.4053 22.8681C40.4053 32.4462 34.5866 33.2104 29.0642 33.8357C29.9731 34.6198 30.7436 36.1086 30.7436 38.4411C30.7436 41.786 30.714 45.9249 30.714 46.7387C30.714 47.3839 31.1684 48.168 32.4231 47.9397C42.3021 44.6445 49.0001 35.2253 49.0001 24.218C49.0001 10.4515 37.8862 0 24.184 0ZM9.6025 34.2327C9.47408 34.332 9.50371 34.5603 9.67166 34.7488C9.82972 34.9077 10.0569 34.9771 10.1854 34.8481C10.3138 34.7488 10.2842 34.5206 10.1162 34.332C9.95815 34.1732 9.73093 34.1037 9.6025 34.2327ZM8.53557 33.4288C8.46642 33.5578 8.5652 33.7166 8.76279 33.8159C8.92085 33.9151 9.11843 33.8853 9.18758 33.7464C9.25674 33.6173 9.15795 33.4585 8.96037 33.3593C8.76279 33.2997 8.60472 33.3295 8.53557 33.4288ZM11.7364 36.9622C11.5783 37.0912 11.6376 37.389 11.8648 37.5776C12.092 37.8059 12.3785 37.8356 12.5069 37.6768C12.6354 37.5478 12.5761 37.25 12.3785 37.0615C12.1612 36.8332 11.8648 36.8034 11.7364 36.9622ZM10.6102 35.5032C10.4521 35.6024 10.4521 35.8605 10.6102 36.0888C10.7682 36.3171 11.035 36.4163 11.1634 36.3171C11.3215 36.188 11.3215 35.93 11.1634 35.7017C11.0251 35.4734 10.7682 35.3741 10.6102 35.5032Z" />
</svg>
