<svg width="329" height="375" viewBox="0 0 329 375" fill="#51557E" xmlns="http://www.w3.org/2000/svg">
    <g filter="url(#filter0_d_104_322)">
        <path d="M218.383 157.773C216.444 153.267 211.217 151.186 206.71 153.125C202.204 155.064 200.123 160.291 202.062 164.798L209.086 181.12C210.056 183.373 211.848 185.021 213.96 185.862C216.072 186.703 218.506 186.738 220.759 185.768L253.402 171.719C257.909 169.779 259.991 164.553 258.051 160.046C256.112 155.538 250.885 153.458 246.378 155.397L221.896 165.934L218.383 157.773Z" />
        <path d="M229.724 197.219L205.242 207.756L201.729 199.595C199.79 195.089 194.563 193.007 190.056 194.946C185.55 196.886 183.468 202.113 185.408 206.62L192.432 222.941C193.402 225.195 195.194 226.842 197.306 227.683C199.418 228.524 201.852 228.56 204.105 227.589L236.748 213.54C241.255 211.601 243.336 206.374 241.396 201.867C239.458 197.359 234.232 195.279 229.724 197.219Z" />
        <path d="M182.496 140.68L116.462 114.384C111.904 112.568 106.736 114.792 104.921 119.351C103.106 123.909 105.33 129.077 109.888 130.892L175.922 157.188C180.48 159.004 185.648 156.78 187.463 152.221C189.278 147.662 187.054 142.495 182.496 140.68Z" />
        <path d="M165.841 182.503L99.8074 156.207C95.2489 154.391 90.0815 156.615 88.2662 161.174C86.4509 165.732 88.6749 170.9 93.2334 172.715L159.267 199.011C163.826 200.826 168.993 198.602 170.808 194.044C172.624 189.485 170.4 184.318 165.841 182.503Z" />
        <path d="M149.187 224.324L83.1533 198.028C78.5948 196.212 73.4274 198.436 71.6121 202.995C69.7968 207.553 72.0207 212.721 76.5793 214.536L142.613 240.832C147.171 242.647 152.339 240.423 154.154 235.865C155.969 231.306 153.745 226.139 149.187 224.324Z" />
        <path d="M132.533 266.145L66.4992 239.849C61.9406 238.034 56.7732 240.258 54.9579 244.816C53.1426 249.375 55.3666 254.542 59.9251 256.357L125.959 282.653C130.517 284.469 135.685 282.245 137.5 277.686C139.315 273.128 137.091 267.96 132.533 266.145Z" />
        <path d="M307.404 115.192L260.462 96.4989C259.979 88.6612 255.063 81.5979 247.436 78.5605L239.816 75.5264L247.437 64.9417C249.035 62.7219 249.521 59.8879 248.755 57.2621C247.988 54.6353 246.054 52.5087 243.513 51.4965L199.49 33.9658C196.948 32.9536 194.082 33.169 191.72 34.5495C189.358 35.9303 187.764 38.3224 187.398 41.0331L185.656 53.9586L178.037 50.9244C170.41 47.8872 161.984 49.6371 156.245 54.9973L109.303 36.3038C104.744 34.4885 99.5769 36.7125 97.7616 41.271L5.28701 273.489C3.4717 278.048 5.69568 283.215 10.2542 285.031L208.355 363.919C212.914 365.734 218.081 363.51 219.896 358.952L312.371 126.733C314.186 122.175 311.962 117.007 307.404 115.192ZM171.462 67.4326L189.654 74.6768C192.195 75.6889 195.061 75.4736 197.424 74.093C199.785 72.7122 201.38 70.3202 201.745 67.6095L203.488 54.684L226.367 63.7949L218.746 74.3796C217.148 76.5994 216.662 79.4334 217.428 82.0592C218.195 84.686 220.129 86.8126 222.67 87.8248L240.862 95.0689C242.212 95.6067 242.968 97.028 242.66 98.4488L239.369 113.601L159.807 81.9173L167.833 68.6511C168.586 67.4072 170.112 66.8949 171.462 67.4326ZM206.675 344.124L25.0824 271.809L110.983 56.0993L146.179 70.1151L139.174 81.692C137.822 83.9263 137.522 86.6424 138.353 89.1183C139.185 91.5942 141.062 93.5794 143.489 94.5456L242.539 133.99C244.965 134.956 247.694 134.806 250 133.578C252.305 132.351 253.955 130.172 254.509 127.621L257.38 114.398L292.576 128.414L206.675 344.124Z" />
    </g>
    <defs>
        <filter id="filter0_d_104_322" x="0.654282" y="33.3354" width="316.349" height="341.216" filterUnits="userSpaceOnUse" color-interpolation-filters="sRGB">
            <feFlood flood-opacity="0" result="BackgroundImageFix"/>
            <feColorMatrix in="SourceAlpha" type="matrix" values="0 0 0 0 0 0 0 0 0 0 0 0 0 0 0 0 0 0 127 0" result="hardAlpha"/>
            <feOffset dy="6"/>
            <feGaussianBlur stdDeviation="2"/>
            <feComposite in2="hardAlpha" operator="out"/>
            <feColorMatrix type="matrix" values="0 0 0 0 0 0 0 0 0 0 0 0 0 0 0 0 0 0 0.25 0"/>
            <feBlend mode="normal" in2="BackgroundImageFix" result="effect1_dropShadow_104_322"/>
            <feBlend mode="normal" in="SourceGraphic" in2="effect1_dropShadow_104_322" result="shape"/>
        </filter>
    </defs>
</svg>
