<svg width="321" height="321" viewBox="0 0 321 321" fill="#51557E" xmlns="http://www.w3.org/2000/svg">
    <g filter="url(#filter0_d_104_330)">
        <path d="M218.633 58.3118C198.458 46.7789 175.315 41.4876 152.132 43.1073C128.95 44.727 106.768 53.1847 88.3918 67.4111C70.0159 81.6374 56.2712 100.993 48.8959 123.031C41.5206 145.069 40.8459 168.799 46.9572 191.221C53.0685 213.642 65.6912 233.748 83.2292 248.995C100.767 264.243 122.433 273.947 145.486 276.881C168.539 279.815 191.945 275.848 212.743 265.48C233.542 255.112 250.798 238.809 262.331 218.633C277.761 191.571 281.825 159.493 273.633 129.437C265.441 99.3812 245.661 73.8023 218.633 58.3118ZM113.523 242.189C97.3313 232.934 84.2476 219.084 75.9268 202.392C67.6059 185.701 64.4216 166.916 66.7765 148.415C69.1314 129.914 76.9197 112.526 89.1566 98.4508C101.393 84.3757 117.529 74.2453 135.524 69.3407C153.518 64.4361 172.562 64.9776 190.249 70.8967C207.936 76.8158 223.47 87.8466 234.887 102.594C246.304 117.342 253.092 135.144 254.392 153.749C255.692 172.355 251.445 190.928 242.19 207.12C229.758 228.811 209.229 244.685 185.108 251.26C160.987 257.834 135.242 254.572 113.523 242.189L113.523 242.189Z" />
        <path d="M172.997 127.885C180.529 132.19 190.124 129.574 194.429 122.043C198.734 114.512 196.119 104.916 188.588 100.611C181.056 96.306 171.461 98.9213 167.156 106.453C162.851 113.984 165.466 123.579 172.997 127.885Z" />
        <path d="M157.08 135.004C155.014 134.265 152.755 134.277 150.697 135.037C148.639 135.797 146.914 137.258 145.826 139.163C145.217 140.228 144.824 141.402 144.669 142.618C144.514 143.834 144.6 145.07 144.922 146.253C145.245 147.436 145.797 148.544 146.548 149.513C147.299 150.483 148.233 151.295 149.298 151.903L150.102 152.363L124.433 197.267L120.096 194.788C118.256 193.736 116.074 193.459 114.03 194.016C111.985 194.573 110.246 195.92 109.194 197.76C108.143 199.599 107.865 201.781 108.422 203.826C108.98 205.87 110.326 207.61 112.166 208.661L143.103 226.346C144.942 227.397 147.124 227.675 149.169 227.118C151.213 226.561 152.953 225.214 154.004 223.374C155.056 221.535 155.334 219.352 154.776 217.308C154.219 215.264 152.873 213.524 151.033 212.473L146.743 210.021L179.511 152.698C180.102 151.664 180.457 150.511 180.549 149.323C180.642 148.135 180.47 146.941 180.046 145.828C179.622 144.714 178.956 143.709 178.097 142.883C177.238 142.058 176.206 141.433 175.077 141.054C167.286 138.439 157.386 135.114 157.08 135.004Z" />
    </g>
    <defs>
        <filter id="filter0_d_104_330" x="38.8216" y="42.8215" width="242.952" height="245" filterUnits="userSpaceOnUse" color-interpolation-filters="sRGB">
            <feFlood flood-opacity="0" result="BackgroundImageFix"/>
            <feColorMatrix in="SourceAlpha" type="matrix" values="0 0 0 0 0 0 0 0 0 0 0 0 0 0 0 0 0 0 127 0" result="hardAlpha"/>
            <feOffset dy="6"/>
            <feGaussianBlur stdDeviation="2"/>
            <feComposite in2="hardAlpha" operator="out"/>
            <feColorMatrix type="matrix" values="0 0 0 0 0 0 0 0 0 0 0 0 0 0 0 0 0 0 0.25 0"/>
            <feBlend mode="normal" in2="BackgroundImageFix" result="effect1_dropShadow_104_330"/>
            <feBlend mode="normal" in="SourceGraphic" in2="effect1_dropShadow_104_330" result="shape"/>
        </filter>
    </defs>
</svg>
