<svg width="294" height="334" viewBox="0 0 294 334" fill="#51557E" xmlns="http://www.w3.org/2000/svg">
    <path d="M231.525 168.056C248.831 162.459 263.905 151.502 274.567 136.772C285.229 122.041 290.925 104.301 290.832 86.1171C290.738 67.9334 284.861 50.2495 274.048 35.6238C263.236 20.9982 248.051 10.1893 230.688 4.76102C213.326 -0.667246 194.688 -0.433375 177.47 5.42879C160.253 11.291 145.349 22.4774 134.914 37.3697C124.48 52.2619 119.056 70.0877 119.429 88.2679C119.801 106.448 125.949 124.04 136.985 138.498C106.834 137.908 77.3066 147.101 52.8262 164.698C28.3459 182.296 10.231 207.351 1.19591 236.11C0.348328 238.821 0.612849 241.758 1.93129 244.274C3.24972 246.791 5.51408 248.681 8.22622 249.529L274.106 332.656C276.818 333.504 279.756 333.24 282.273 331.923C284.79 330.606 286.68 328.342 287.528 325.631C296.483 296.848 295.867 265.937 285.77 237.529C275.674 209.121 256.642 184.746 231.525 168.056ZM143.726 67.4736C147.518 55.3435 154.824 44.6109 164.719 36.633C174.615 28.6551 186.655 23.7901 199.318 22.6534C211.981 21.5167 224.697 24.1593 235.859 30.2469C247.022 36.3345 256.128 45.5938 262.027 56.8539C267.927 68.114 270.354 80.8691 269.001 93.5063C267.649 106.143 262.579 118.095 254.431 127.85C246.283 137.605 235.424 144.725 223.227 148.309C211.03 151.893 198.043 151.782 185.908 147.987C169.646 142.883 156.073 131.54 148.165 116.446C140.257 101.352 138.661 83.7396 143.726 67.4736ZM25.3042 232.427C36.6187 205.311 57.6493 183.395 84.2802 170.968C110.911 158.54 141.225 156.495 169.29 165.234L189.742 171.628C217.786 180.432 241.537 199.38 256.346 224.764C271.156 250.148 275.957 280.14 269.811 308.871L25.3042 232.427Z" />
</svg>
