<svg width="45" height="45" viewBox="0 0 45 45" fill="#51557E" xmlns="http://www.w3.org/2000/svg">
    <path d="M21.4277 29.8652C20.4697 30.8232 18.9053 30.8232 17.9473 29.8652L12.3223 24.2402C11.3643 23.2822 11.3643 21.7178 12.3223 20.7598C13.2803 19.8018 14.8447 19.8018 15.8027 20.7598L19.6875 24.6445L29.1973 15.1348C30.1553 14.1768 31.7197 14.1768 32.6777 15.1348C33.6357 16.0928 33.6357 17.6572 32.6777 18.6152L21.4277 29.8652ZM45 22.5C45 34.9277 34.9277 45 22.5 45C10.0723 45 0 34.9277 0 22.5C0 10.0723 10.0723 0 22.5 0C34.9277 0 45 10.0723 45 22.5ZM22.5 4.21875C12.4014 4.21875 4.21875 12.4014 4.21875 22.5C4.21875 32.5986 12.4014 40.7812 22.5 40.7812C32.5986 40.7812 40.7812 32.5986 40.7812 22.5C40.7812 12.4014 32.5986 4.21875 22.5 4.21875Z" />
</svg>
