<svg width="893" height="893" viewBox="0 0 893 893" fill="none" xmlns="http://www.w3.org/2000/svg">
    <path fill-rule="evenodd" clip-rule="evenodd" d="M314.682 395.798L403.012 491.03C409.891 498.447 419.239 503.1 429.303 504.118L555.715 516.902L516.904 594.494C516.868 594.568 516.832 594.641 516.795 594.715C504.838 618.62 441.139 610.986 374.519 577.664C307.899 544.342 263.587 497.95 275.544 474.045C275.556 474.021 275.568 473.996 275.58 473.971C275.605 473.923 275.629 473.874 275.654 473.825L314.682 395.798Z" fill="#51557E"/>
    <path d="M624.819 623.828C631.781 618.98 640.213 612.377 647.537 606.421C653.238 601.782 661.598 604.313 662.07 611.648C662.896 624.491 660.787 638.267 658.733 647.122C658.082 649.935 656.19 652.393 653.399 653.142C641.576 656.327 629.913 648.055 621.961 639.425C617.695 634.796 619.651 627.424 624.819 623.828Z" fill="#1B2430"/>
    <path fill-rule="evenodd" clip-rule="evenodd" d="M655.095 609.464C653.987 609.088 652.331 609.217 650.814 610.45C643.458 616.434 634.909 623.132 627.787 628.091C626.281 629.14 625.264 630.744 624.936 632.304C624.626 633.796 624.959 635.011 625.784 635.906C629.503 639.943 633.929 643.708 638.589 646.086C643.217 648.447 647.747 649.286 652.051 648.126C652.533 647.997 653.335 647.405 653.673 645.951C655.657 637.373 657.665 624.139 656.885 611.981C656.791 610.509 656.053 609.788 655.095 609.464ZM658.431 599.623C663.194 601.237 666.877 605.453 667.252 611.312L662.071 611.648M658.431 599.623C653.816 598.06 648.444 598.986 644.256 602.39L658.431 599.623ZM667.252 611.312C668.124 624.841 665.912 639.158 663.798 648.296C662.828 652.465 659.847 656.788 654.752 658.16C647.233 660.185 640.013 658.477 633.867 655.342C627.753 652.223 622.371 647.537 618.143 642.947C611.075 635.279 614.979 624.351 621.846 619.563C628.653 614.828 636.967 608.321 644.256 602.39" fill="#51557E"/>
    <path fill-rule="evenodd" clip-rule="evenodd" d="M652.635 593.615C655.432 592.982 658.213 594.739 658.846 597.539C659.465 600.284 658.852 603.555 658.176 606.194C657.425 609.103 656.279 612.369 655.003 615.592C652.446 622.053 649.187 628.799 646.957 633.061C645.627 635.603 642.487 636.586 639.946 635.256C637.404 633.927 636.424 630.788 637.754 628.246C639.86 624.208 642.954 617.802 645.344 611.769C646.539 608.742 647.517 605.927 648.113 603.608C648.409 602.449 648.59 601.505 648.669 600.779C648.745 600.093 648.706 599.811 648.706 599.81C648.706 599.81 648.709 599.816 648.71 599.826C648.077 597.026 649.834 594.245 652.635 593.615Z" fill="#51557E"/>
    <path fill-rule="evenodd" clip-rule="evenodd" d="M703.181 506.765C707.028 508.689 708.59 513.371 706.664 517.221L668.058 594.405C666.133 598.254 661.45 599.813 657.602 597.889C653.75 595.962 652.193 591.282 654.119 587.433L692.725 510.248C694.65 506.399 699.329 504.838 703.181 506.765Z" fill="#51557E"/>
    <path d="M678.898 603.253C673.599 613.847 660.717 618.14 650.123 612.841C639.529 607.543 635.238 594.659 640.537 584.066C645.836 573.472 658.718 569.178 669.312 574.477C679.906 579.776 684.197 592.659 678.898 603.253Z" fill="#51557E"/>
    <path d="M500.065 293.603L229.964 270.695C224.972 270.271 222.075 276.213 225.481 279.886L408.922 477.662C416.181 485.489 426.047 490.4 436.667 491.474L702.202 518.326C707.167 518.829 710.164 512.977 706.863 509.24L529.224 308.26C521.751 299.805 511.308 294.556 500.065 293.603Z" fill="#51557E"/>
    <path fill-rule="evenodd" clip-rule="evenodd" d="M633.157 490.453C632.829 493.303 630.255 495.35 627.404 495.023L439.456 473.529C436.606 473.203 434.559 470.627 434.885 467.777C435.211 464.926 437.786 462.879 440.637 463.205L628.585 484.7C631.435 485.026 633.482 487.602 633.157 490.453Z" fill="#1B2430"/>
    <path fill-rule="evenodd" clip-rule="evenodd" d="M264.731 292.725C266.82 290.758 270.109 290.857 272.076 292.945L315.447 338.998C317.414 341.087 317.315 344.375 315.227 346.343C313.138 348.31 309.85 348.211 307.883 346.122L264.512 300.069C262.544 297.98 262.643 294.692 264.731 292.725Z" fill="#1B2430"/>
</svg>
