<svg width="333" height="333" viewBox="0 0 333 333" fill="none" xmlns="http://www.w3.org/2000/svg">
    <g filter="url(#filter0_d_105_522)">
        <path d="M110.128 194.161C151.734 218.182 204.935 203.927 228.956 162.321C252.977 120.716 238.722 67.5148 197.116 43.4938C155.511 19.4728 102.31 33.7279 78.2888 75.3335C54.2678 116.939 68.5229 170.14 110.128 194.161Z" fill="#51557E"/>
        <path d="M170.973 115.452L166.043 123.99L146.959 112.971L142.899 120.002L161.984 131.021L157.055 139.559L137.97 128.54C136.23 131.553 134.993 134.857 134.837 137.446C134.682 140.034 134.527 142.623 135.453 144.498C136.09 146.874 137.809 148.536 139.238 150.7C140.957 152.362 143.178 154.314 145.689 155.764C147.698 156.924 149.205 157.794 151.504 158.452C153.803 159.109 155.309 159.979 157.396 159.844L151.576 174.564C149.277 173.907 146.476 172.959 143.965 171.509C141.164 170.562 138.653 169.112 136.142 167.662C131.622 165.053 127.391 161.941 124.244 158.114C120.806 154.79 118.45 150.752 117.389 146.791C115.825 142.54 115.556 138.367 115.867 133.189C116.39 128.804 117.995 123.704 120.895 118.682L111.352 113.172L116.282 104.635L125.824 110.144L129.883 103.113L120.341 97.6034L125.27 89.0656L134.813 94.5748C138.214 89.8425 141.538 86.4047 145.365 83.2568C149.403 80.901 153.442 78.5453 157.905 77.774C162.368 77.0026 167.044 77.0234 171.641 78.3386C176.529 79.1516 181.339 81.259 185.859 83.8687C187.868 85.0285 190.379 86.4783 192.098 88.1404C193.817 89.8024 196.328 91.2522 197.757 93.4165L187.919 105.817C186.703 104.445 185.486 103.072 183.767 101.41C182.048 99.7484 180.541 98.8785 178.532 97.7186C176.021 96.2689 173.22 95.3213 170.921 94.6637C168.622 94.0061 166.034 93.8507 164.159 94.7774C161.783 95.4142 159.908 96.341 157.744 97.7699C155.58 99.1989 153.628 101.42 151.888 104.433L170.973 115.452Z" fill="#BCBCBC"/>
        <path d="M135.6 289.222C177.206 313.243 230.407 298.988 254.427 257.383C278.448 215.777 264.193 162.577 222.588 138.556C180.982 114.535 127.781 128.79 103.761 170.395C79.7396 212.001 93.9947 265.202 135.6 289.222Z" fill="#9FA7FA"/>
        <path d="M179.757 194.183C179.68 195.477 179.602 196.772 180.026 198.356C180.451 199.941 180.875 201.525 182.092 202.897C183.019 204.771 184.738 206.433 186.167 208.598C188.813 212.134 191.458 215.67 193.602 218.917C195.745 222.163 197.096 225.622 197.945 228.791C198.795 231.959 199.354 235.63 198.908 238.721C198.463 241.812 197.438 245.908 195.408 249.424C193.378 252.939 191.136 255.662 188.682 257.594C186.228 259.525 183.271 261.166 180.103 262.015C176.934 262.864 173.553 262.921 170.462 262.476C166.869 261.74 163.275 261.005 159.972 259.768L153.593 270.817L144.553 265.597L150.932 254.548C148.209 252.306 145.485 250.064 143.052 247.32C140.618 244.576 138.977 241.62 138.418 237.949C137.067 234.49 137.3 230.607 137.533 226.723C137.766 222.84 139.583 218.533 142.193 214.013L158.766 223.581C157.317 226.092 156.369 228.893 156.001 230.69C155.344 232.989 155.768 234.573 156.405 236.95C156.83 238.534 157.756 240.408 158.973 241.781C160.19 243.153 161.697 244.022 163.203 244.892C165.212 246.052 166.719 246.922 168.013 247C169.81 247.367 171.104 247.445 172.689 247.021C174.273 246.596 175.355 245.882 176.437 245.167C177.519 244.453 178.389 242.946 179.259 241.439C180.129 239.933 180.999 238.426 181.077 237.132C181.154 235.837 181.522 234.04 181.097 232.456C180.673 230.872 180.248 229.287 179.032 227.915C178.105 226.041 176.386 224.379 174.957 222.215C172.311 218.678 169.666 215.142 167.522 211.895C165.379 208.649 164.027 205.19 163.178 202.022C162.329 198.853 161.77 195.182 162.216 192.091C162.661 189 163.686 184.904 165.716 181.389C167.456 178.375 169.698 175.652 172.152 173.721C174.606 171.79 177.562 170.148 180.731 169.299C183.9 168.45 187.281 168.393 190.662 168.337C193.753 168.782 197.848 169.807 201.152 171.045L208.111 158.991L217.151 164.211L210.192 176.264C212.915 178.506 215.349 181.25 217.492 184.497C219.133 187.453 220.775 190.41 220.831 193.791C221.68 196.959 221.447 200.842 220.712 204.436C219.977 208.029 218.449 211.834 216.42 215.35L199.846 205.781C202.456 201.261 203.481 197.166 202.632 193.997C201.783 190.828 200.142 187.872 197.128 186.132C195.622 185.262 193.825 184.895 192.028 184.527C190.734 184.449 189.44 184.372 187.855 184.796C186.271 185.221 185.189 185.935 184.609 186.94C183.527 187.654 182.657 189.161 181.787 190.667C180.705 191.382 180.337 193.179 179.757 194.183Z" fill="white"/>
    </g>
    <defs>
        <filter id="filter0_d_105_522" x="62.6201" y="31.8251" width="207.476" height="279.066" filterUnits="userSpaceOnUse" color-interpolation-filters="sRGB">
            <feFlood flood-opacity="0" result="BackgroundImageFix"/>
            <feColorMatrix in="SourceAlpha" type="matrix" values="0 0 0 0 0 0 0 0 0 0 0 0 0 0 0 0 0 0 127 0" result="hardAlpha"/>
            <feOffset dy="6"/>
            <feGaussianBlur stdDeviation="2"/>
            <feComposite in2="hardAlpha" operator="out"/>
            <feColorMatrix type="matrix" values="0 0 0 0 0 0 0 0 0 0 0 0 0 0 0 0 0 0 0.25 0"/>
            <feBlend mode="normal" in2="BackgroundImageFix" result="effect1_dropShadow_105_522"/>
            <feBlend mode="normal" in="SourceGraphic" in2="effect1_dropShadow_105_522" result="shape"/>
        </filter>
    </defs>
</svg>
