<svg width="276" height="315" viewBox="0 0 276 315" fill="#51557E" xmlns="http://www.w3.org/2000/svg">
    <path d="M210.371 235.646L136.254 263.9C134.289 264.65 132.701 266.149 131.841 268.069C130.981 269.989 130.919 272.172 131.668 274.138C132.417 276.103 133.917 277.691 135.837 278.551C137.757 279.411 139.94 279.473 141.905 278.724L158.022 272.58C161.203 276.331 165.468 279.004 170.231 280.229C174.995 281.454 180.02 281.171 184.616 279.419C189.211 277.667 193.15 274.533 195.889 270.448C198.628 266.363 200.032 261.529 199.908 256.612L216.022 250.469C217.988 249.72 219.576 248.22 220.436 246.301C221.296 244.381 221.358 242.198 220.609 240.232C219.859 238.267 218.36 236.679 216.44 235.819C214.52 234.959 212.337 234.897 210.371 235.646Z" />
    <path d="M201.895 213.411L127.778 241.665C125.812 242.415 124.225 243.914 123.365 245.834C122.505 247.754 122.442 249.937 123.192 251.903C123.941 253.868 125.441 255.456 127.361 256.316C129.28 257.176 131.463 257.238 133.429 256.489L207.546 228.234C209.512 227.485 211.099 225.986 211.959 224.066C212.819 222.146 212.882 219.963 212.132 217.997C211.383 216.032 209.883 214.444 207.964 213.584C206.044 212.724 203.861 212.662 201.895 213.411Z" />
    <path d="M192.795 156.633C196.034 145.201 196.03 133.095 192.785 121.665C189.539 110.236 183.18 99.9344 174.416 91.9113C165.653 83.8883 154.832 78.4599 143.161 76.2328C131.491 74.0056 119.431 75.0675 108.329 79.2997C97.227 83.5318 87.5206 90.7676 80.2942 100.199C73.0678 109.629 68.6061 120.884 67.4076 132.705C66.2091 144.525 68.3211 156.446 73.5075 167.136C78.6939 177.825 86.7504 186.862 96.7768 193.236L130.953 214.969L130.981 214.979L119.302 219.431C117.336 220.18 115.749 221.68 114.889 223.599C114.029 225.519 113.966 227.702 114.716 229.668C115.465 231.634 116.965 233.221 118.885 234.081C120.804 234.941 122.987 235.004 124.953 234.254L199.07 206C201.036 205.25 202.623 203.751 203.483 201.831C204.343 199.911 204.406 197.728 203.656 195.763C202.907 193.797 201.407 192.209 199.488 191.349C197.568 190.489 195.385 190.427 193.419 191.176L181.741 195.628L181.76 195.601L192.795 156.633ZM163.782 202.474L148.911 208.143L148.926 208.118L131.973 163.647L120.856 167.885C118.89 168.635 116.707 168.573 114.787 167.712C112.868 166.852 111.368 165.265 110.619 163.299C109.869 161.333 109.931 159.151 110.792 157.231C111.652 155.311 113.239 153.811 115.205 153.062L152.263 138.935C154.229 138.185 156.412 138.248 158.332 139.108C160.252 139.968 161.751 141.555 162.501 143.521C163.25 145.487 163.188 147.67 162.328 149.589C161.468 151.509 159.88 153.009 157.914 153.758L146.797 157.996L163.749 202.467L163.782 202.474Z" />
    <path d="M234.839 147.815L219.175 145.297C218.146 145.129 217.093 145.166 216.078 145.405C215.062 145.644 214.104 146.082 213.258 146.692C212.412 147.302 211.694 148.073 211.147 148.961C210.599 149.849 210.232 150.836 210.066 151.866C209.901 152.896 209.94 153.948 210.182 154.963C210.423 155.978 210.863 156.935 211.475 157.78C212.087 158.625 212.86 159.34 213.749 159.886C214.639 160.431 215.627 160.796 216.657 160.959L232.321 163.477C233.35 163.645 234.403 163.608 235.418 163.369C236.434 163.13 237.392 162.692 238.238 162.082C239.084 161.472 239.802 160.701 240.349 159.813C240.897 158.925 241.264 157.938 241.43 156.908C241.595 155.878 241.556 154.825 241.314 153.811C241.073 152.796 240.633 151.839 240.021 150.994C239.409 150.149 238.636 149.434 237.746 148.888C236.857 148.343 235.869 147.978 234.839 147.815Z" />
    <path d="M189.447 78.427C190.746 77.932 191.892 77.1022 192.766 76.0218L202.779 63.716C203.436 62.908 203.928 61.9785 204.226 60.9804C204.524 59.9824 204.623 58.9355 204.517 57.8993C204.41 56.8632 204.1 55.8582 203.606 54.9417C203.111 54.0252 202.44 53.2151 201.632 52.5578C200.824 51.9005 199.895 51.4087 198.897 51.1106C197.899 50.8125 196.852 50.7139 195.815 50.8204C194.779 50.9269 193.774 51.2364 192.858 51.7313C191.941 52.2263 191.131 52.8968 190.474 53.7048L180.461 66.0106C179.359 67.3657 178.735 69.0467 178.686 70.7927C178.637 72.5387 179.165 74.2521 180.189 75.6671C181.214 77.0821 182.676 78.1196 184.35 78.6186C186.024 79.1176 187.816 79.0502 189.447 78.4269L189.447 78.427Z" />
    <path d="M102.677 64.4809C104.642 63.7315 106.23 62.232 107.09 60.3121C107.95 58.3923 108.012 56.2095 107.263 54.2438L101.612 39.4204C100.863 37.4547 99.3631 35.8671 97.4433 35.0071C95.5234 34.147 93.3406 34.0847 91.3748 34.8341C89.4091 35.5835 87.8216 37.083 86.9615 39.0028C86.1014 40.9227 86.0392 43.1055 86.7886 45.0713L92.4395 59.8947C93.1889 61.8603 94.6884 63.4478 96.6082 64.3079C98.5281 65.1679 100.711 65.2302 102.677 64.4809Z" />
    <path d="M45.6519 117.402L29.988 114.884C27.9111 114.55 25.7866 115.055 24.0819 116.288C22.3771 117.52 21.2318 119.379 20.8979 121.456C20.564 123.533 21.0687 125.658 22.3012 127.362C23.5337 129.067 25.3929 130.212 27.4698 130.546L43.1337 133.064C44.162 133.229 45.2129 133.19 46.2263 132.95C47.2397 132.709 48.1957 132.271 49.0398 131.661C49.8839 131.05 50.5995 130.28 51.1459 129.393C51.6922 128.506 52.0584 127.52 52.2238 126.492C52.3891 125.464 52.3503 124.413 52.1095 123.399C51.8688 122.386 51.4307 121.43 50.8205 120.586C50.2102 119.742 49.4397 119.026 48.5528 118.48C47.666 117.933 46.6803 117.567 45.6519 117.402Z" />
    <path d="M69.5423 202.339L59.5293 214.645C58.869 215.453 58.3745 216.383 58.0741 217.382C57.7738 218.381 57.6734 219.429 57.7788 220.467C57.8842 221.505 58.1934 222.512 58.6885 223.43C59.1836 224.348 59.855 225.16 60.6643 225.818C61.4735 226.477 62.4046 226.969 63.4044 227.267C64.4041 227.565 65.4528 227.663 66.4904 227.555C67.5281 227.447 68.5342 227.135 69.4512 226.638C70.3682 226.14 71.1781 225.467 71.8345 224.656L81.8475 212.35C83.169 210.718 83.7891 208.628 83.5718 206.539C83.3545 204.45 82.3175 202.533 80.6884 201.207C79.0592 199.882 76.9708 199.256 74.8813 199.469C72.7917 199.681 70.8717 200.713 69.5423 202.339Z" />
</svg>
