<svg width="210" height="244" viewBox="0 0 210 244" fill="#51557E" xmlns="http://www.w3.org/2000/svg">
    <g filter="url(#filter0_d_104_194)">
        <path d="M205.876 194.293L153.815 -1.4871e-05L8.09553 39.0454L13.5185 59.2842L5.42298 61.4534L7.59217 69.5489L15.6877 67.3798L20.0261 83.5708L11.9305 85.74L14.0997 93.8355L22.1953 91.6663L26.5336 107.857L18.4381 110.027L20.6073 118.122L28.7028 115.953L33.0412 132.144L24.9457 134.313L27.1149 142.409L35.2104 140.24L39.5488 156.431L31.4533 158.6L33.6224 166.695L41.718 164.526L46.0564 180.717L37.9608 182.886L40.13 190.982L48.2255 188.813L52.5639 205.004L44.4684 207.173L46.6376 215.268L54.7331 213.099L60.1561 233.338L205.876 194.293ZM56.3211 186.643L64.4166 184.474L62.2474 176.379L54.1519 178.548L49.8135 162.357L57.909 160.188L55.7398 152.092L47.6443 154.261L43.3059 138.07L51.4015 135.901L49.2323 127.806L41.1367 129.975L36.7984 113.784L44.8939 111.615L42.7247 103.519L34.6292 105.688L30.2908 89.4971L38.3863 87.328L36.2171 79.2324L28.1216 81.4016L23.7832 65.2106L31.8787 63.0414L29.7096 54.9458L21.614 57.115L18.3602 44.9717L147.889 10.2647L195.611 188.366L66.0824 223.073L62.8286 210.93L70.9242 208.761L68.755 200.665L60.6595 202.835L56.3211 186.643Z" />
        <path d="M133.073 35.9267L52.1176 57.6187L67.3019 114.287L148.257 92.5955L133.073 35.9267ZM137.992 86.6691L73.2282 104.023L62.3823 63.545L127.147 46.1915L137.992 86.6691Z" />
        <path d="M140.452 112.04L83.7836 127.224L85.9528 135.32L142.621 120.136L140.452 112.04Z" />
        <path d="M145.875 132.279L89.2065 147.463L91.3757 155.559L148.044 140.375L145.875 132.279Z" />
    </g>
    <defs>
        <filter id="filter0_d_104_194" x="1.42297" y="0" width="208.453" height="243.338" filterUnits="userSpaceOnUse" color-interpolation-filters="sRGB">
            <feFlood flood-opacity="0" result="BackgroundImageFix"/>
            <feColorMatrix in="SourceAlpha" type="matrix" values="0 0 0 0 0 0 0 0 0 0 0 0 0 0 0 0 0 0 127 0" result="hardAlpha"/>
            <feOffset dy="6"/>
            <feGaussianBlur stdDeviation="2"/>
            <feComposite in2="hardAlpha" operator="out"/>
            <feColorMatrix type="matrix" values="0 0 0 0 0 0 0 0 0 0 0 0 0 0 0 0 0 0 0.25 0"/>
            <feBlend mode="normal" in2="BackgroundImageFix" result="effect1_dropShadow_104_194"/>
            <feBlend mode="normal" in="SourceGraphic" in2="effect1_dropShadow_104_194" result="shape"/>
        </filter>
    </defs>
</svg>
