<svg width="401" height="451" viewBox="0 0 401 451" fill="none" xmlns="http://www.w3.org/2000/svg">
    <g filter="url(#filter0_d_108_243)">
        <path d="M383.421 341.982C382.357 335.771 379.846 329.899 376.091 324.84C372.337 319.781 367.444 315.678 361.809 312.864C324.231 294.116 241.769 266.428 241.769 266.428V239.187L244.065 237.454C260.073 225.2 270.778 207.274 273.977 187.363L274.439 184.46H276.677C282.722 184.458 288.629 182.654 293.646 179.279C298.662 175.904 302.56 171.111 304.843 165.51C307.562 160.594 308.987 155.068 308.986 149.449C308.986 145.581 308.251 141.748 306.82 138.154C306.103 134.224 303.92 130.713 300.714 128.333L293.106 123.711L294.997 115.449C308.741 55.5082 262.327 1.51786 200.004 0.0302292C198.488 0.0010925 196.987 -0.0129663 195.5 0.0156784C194.013 -0.0129663 192.512 0.00109235 190.996 0.0301237C128.673 1.51786 82.2594 55.5081 96.003 115.449L97.8942 123.711L90.2861 128.333C87.0794 130.713 84.8966 134.224 84.1794 138.154C82.7484 141.748 82.0136 145.581 82.0141 149.449C82.0126 155.068 83.4384 160.594 86.1573 165.51C88.44 171.11 92.338 175.904 97.3544 179.279C102.371 182.654 108.278 184.458 114.323 184.46H116.561L117.023 187.363C120.222 207.274 130.927 225.2 146.935 237.454L149.231 239.187V266.427C149.231 266.427 66.7691 294.116 29.1907 312.863C23.556 315.678 18.6632 319.781 14.9086 324.84C11.1539 329.899 8.64297 335.771 7.57915 341.982C1.14038 379.578 0 443 0 443H391C391 443 389.86 379.579 383.421 341.982Z" fill="#51557E"/>
    </g>
    <defs>
        <filter id="filter0_d_108_243" x="0" y="0" width="401" height="451" filterUnits="userSpaceOnUse" color-interpolation-filters="sRGB">
            <feFlood flood-opacity="0" result="BackgroundImageFix"/>
            <feColorMatrix in="SourceAlpha" type="matrix" values="0 0 0 0 0 0 0 0 0 0 0 0 0 0 0 0 0 0 127 0" result="hardAlpha"/>
            <feOffset dx="6" dy="4"/>
            <feGaussianBlur stdDeviation="2"/>
            <feComposite in2="hardAlpha" operator="out"/>
            <feColorMatrix type="matrix" values="0 0 0 0 0 0 0 0 0 0 0 0 0 0 0 0 0 0 0.25 0"/>
            <feBlend mode="normal" in2="BackgroundImageFix" result="effect1_dropShadow_108_243"/>
            <feBlend mode="normal" in="SourceGraphic" in2="effect1_dropShadow_108_243" result="shape"/>
        </filter>
    </defs>
</svg>
